<?xml version="1.0" encoding="UTF-8"?>
<svg id="Layer_1" xmlns="http://www.w3.org/2000/svg" version="1.1" viewBox="0 0 2100 1983.53">
  <!-- Generator: Adobe Illustrator 30.1.0, SVG Export Plug-In . SVG Version: 2.1.1 Build 136)  -->
  <defs>
    <style>
      .st0 {
        fill: #fff;
        fill-rule: evenodd;
      }
    </style>
  </defs>
  <path class="st0" d="M1050,1578.89s123.26-9.71,188.17,139.51c71.54,164.49,144.67,243.66,216.7,261.29l.3-.3-.3.3c226.02,55.19,440.34-496.92,555.68-919.92l-1.09,2.87c47.96-141.5,80.95-287.06,88.68-428.06C2132.83,2.81,1675.94-115.9,1143.44,97.54c32.7,50.73,79.27,113.16,136.94,165.48,120.09,108.7,272.59,173.6,272.59,173.6,0,0-84.32-1.68-184.9-30.82-100.67-29.23-131.49-45.48-378.12-232.06C833.2,55.13,690.12,17.18,606.69,5.29,240.16-34.25-24.9,147.87,1.86,634.59c15.26,278.53,462.74,1997.5,859.88,1083.81,64.9-149.23,188.27-139.51,188.27-139.51h0ZM514.14,344.76h0c-20.51,15.46-24.57,44.79-9.12,65.2l413.49,547.46c-4.76,7.13-8.82,14.67-12.29,22.79-30.12,71.24,3.17,153.49,74.41,183.61,71.24,30.12,153.39-3.17,183.61-74.41,5.25-12.58,8.62-25.57,10.11-38.45l474.43-192.33c32.1-12.98,47.76-49.84,34.68-81.95h0c-12.98-32.01-49.84-47.66-81.95-34.68l-470.37,190.74c-11.79-11.1-25.66-20.21-41.32-26.95-32.01-13.48-66.29-14.27-97.01-4.46l-413.49-547.46c-15.46-20.51-44.79-24.57-65.2-9.12h0Z"/>
</svg>